# xmcd
#
# Track frame offsets:
#	150
#	33310
#	64979
#	101328
#	135400
#	157465
#	183919
#	211489
#	226758
#
# Disc length: 3453 seconds
#
# Revision: 0
# Processed by: cddbd v1.4PL0 Copyright (c) Steve Scherf et al.
# Submitted via: EasyCDDAExtractor 4.5.0.1
#
DISCID=770d7b09
DTITLE=Blues Wolf
DYEAR=1999
DGENRE=blues
TTITLE0=Killing Time
TTITLE1=On The Prowl
TTITLE2=Silk Stalking
TTITLE3=Lagging The Pack
TTITLE4=Camouflage
TTITLE5=Heat of the Night
TTITLE6=Wolf Blues
TTITLE7=Midnight
TTITLE8=Blue Tundra
EXTD=
EXTT0=
EXTT1=
EXTT2=
EXTT3=
EXTT4=
EXTT5=
EXTT6=
EXTT7=
EXTT8=
PLAYORDER=
